<svg xmlns="http://www.w3.org/2000/svg" version="1.1" xmlns:xlink="http://www.w3.org/1999/xlink" xmlns:svgjs="http://svgjs.dev/svgjs" width="1920" height="1080" preserveAspectRatio="none" viewBox="0 0 1920 1080"><g mask="url(&quot;#SvgjsMask1081&quot;)" fill="none"><rect width="1920" height="1080" x="0" y="0" fill="rgba(255, 255, 255, 1)"></rect><path d="M1127.27 391.94L1204.64 391.94L1204.64 469.31L1127.27 469.31z" stroke="rgba(255, 0, 187, 1)"></path><path d="M949.52 729.89 a13.57 13.57 0 1 0 27.14 0 a13.57 13.57 0 1 0 -27.14 0z" stroke="rgba(255, 0, 187, 1)"></path><path d="M157.09 527.28L186.55 527.28L186.55 556.74L157.09 556.74z" stroke="rgba(255, 242, 0, 1)"></path><path d="M1488.26 550.89L1570.46 550.89L1570.46 633.09L1488.26 633.09z" fill="rgba(0, 194, 34, 1)"></path><path d="M1594.2 581.99L1690.01 581.99L1690.01 583.39L1594.2 583.39z" stroke="rgba(255, 242, 0, 1)"></path><path d="M1368.96 95.9L1430.74 95.9L1430.74 157.68L1368.96 157.68z" fill="rgba(255, 242, 0, 1)"></path><path d="M1700.36 793.06L1760.22 793.06L1760.22 852.92L1700.36 852.92z" fill="rgba(0, 102, 255, 1)"></path><path d="M930.59 583.45L969.11 583.45L969.11 620.25L930.59 620.25z" stroke="rgba(255, 0, 187, 1)"></path><path d="M147.79 1019.68L199.41 1019.68L199.41 1071.3L147.79 1071.3z" stroke="rgba(255, 0, 187, 1)"></path><path d="M1144.44 883.03a2.18 2.18 0 1 0-0.75-4.3z" stroke="rgba(0, 194, 34, 1)"></path><path d="M1099.3 1063.13L1131.94 1063.13L1131.94 1095.77L1099.3 1095.77z" fill="rgba(0, 102, 255, 1)"></path><path d="M255.04 523.98L336.87 523.98L336.87 605.81L255.04 605.81z" stroke="rgba(255, 0, 187, 1)"></path><path d="M1736.63 1095.42a52.74 52.74 0 1 0 34.31-99.74z" stroke="rgba(255, 242, 0, 1)"></path><path d="M546.68 918.48L654.08 918.48L654.08 1025.88L546.68 1025.88z" fill="rgba(255, 242, 0, 1)"></path><path d="M1042.54 892.11L1125.68 892.11L1125.68 975.25L1042.54 975.25z" fill="rgba(0, 194, 34, 1)"></path><path d="M101.89 117.02L194.99 117.02L194.99 210.12L101.89 210.12z" stroke="rgba(255, 242, 0, 1)"></path><path d="M997.29 268.58 a80.57 80.57 0 1 0 161.14 0 a80.57 80.57 0 1 0 -161.14 0z" fill="rgba(255, 0, 187, 1)"></path><path d="M413.08 848.46a71.35 71.35 0 1 0 117.51 80.96z" stroke="rgba(255, 242, 0, 1)"></path><path d="M367.44 270.07L439.86 270.07L439.86 342.49L367.44 342.49z" fill="rgba(0, 194, 34, 1)"></path><path d="M1644.18 528.73L1678.04 528.73L1678.04 562.59L1644.18 562.59z" stroke="rgba(0, 194, 34, 1)"></path><path d="M178.78 837.67 a81.41 81.41 0 1 0 162.82 0 a81.41 81.41 0 1 0 -162.82 0z" stroke="rgba(255, 242, 0, 1)"></path><path d="M687.11 398.62L790.2 398.62L790.2 488.62L687.11 488.62z" fill="rgba(0, 102, 255, 1)"></path><path d="M1232.09 883.15L1315.24 883.15L1315.24 915.11L1232.09 915.11z" stroke="rgba(0, 194, 34, 1)"></path></g><defs><mask id="SvgjsMask1081"><rect width="1920" height="1080" fill="#ffffff"></rect></mask></defs></svg>