<svg xmlns="http://www.w3.org/2000/svg" version="1.1" xmlns:xlink="http://www.w3.org/1999/xlink" xmlns:svgjs="http://svgjs.dev/svgjs" width="1920" height="1080" preserveAspectRatio="none" viewBox="0 0 1920 1080"><g mask="url(&quot;#SvgjsMask1084&quot;)" fill="none"><rect width="1920" height="1080" x="0" y="0" fill="rgba(255, 255, 255, 1)"></rect><path d="M22 1080L1102 0L1685.5 0L605.5 1080z" fill="url(&quot;#SvgjsLinearGradient1085&quot;)"></path><path d="M696.6 1080L1776.6 0L1992.6 0L912.6 1080z" fill="url(&quot;#SvgjsLinearGradient1085&quot;)"></path><path d="M1852 1080L772 0L644.5 0L1724.5 1080z" fill="url(&quot;#SvgjsLinearGradient1086&quot;)"></path><path d="M1206.4 1080L126.40000000000009 0L-673.0999999999999 0L406.9000000000001 1080z" fill="url(&quot;#SvgjsLinearGradient1086&quot;)"></path><path d="M1048.4094472132906 1080L1920 208.4094472132906L1920 1080z" fill="url(&quot;#SvgjsLinearGradient1085&quot;)"></path><path d="M0 1080L871.5905527867094 1080L 0 208.4094472132906z" fill="url(&quot;#SvgjsLinearGradient1086&quot;)"></path></g><defs><mask id="SvgjsMask1084"><rect width="1920" height="1080" fill="#ffffff"></rect></mask><linearGradient x1="0%" y1="100%" x2="100%" y2="0%" id="SvgjsLinearGradient1085"><stop stop-color="rgba(0, 102, 255, 0.28)" offset="0"></stop><stop stop-opacity="0" stop-color="rgba(0, 102, 255, 0.28)" offset="0.66"></stop></linearGradient><linearGradient x1="100%" y1="100%" x2="0%" y2="0%" id="SvgjsLinearGradient1086"><stop stop-color="rgba(0, 102, 255, 0.28)" offset="0"></stop><stop stop-opacity="0" stop-color="rgba(0, 102, 255, 0.28)" offset="0.66"></stop></linearGradient></defs></svg>